<?xml version="1.0" encoding="utf-8"?>
<!-- Generator: Adobe Illustrator 18.1.0, SVG Export Plug-In . SVG Version: 6.00 Build 0)  -->
<!DOCTYPE svg PUBLIC "-//W3C//DTD SVG 1.1//EN" "http://www.w3.org/Graphics/SVG/1.1/DTD/svg11.dtd">
<svg version="1.1" id="Layer_1" xmlns="http://www.w3.org/2000/svg" xmlns:xlink="http://www.w3.org/1999/xlink" x="0px" y="0px"
	 viewBox="0 0 337.3 337.3" enable-background="new 0 0 337.3 337.3" xml:space="preserve">
<g>
	<circle fill="none" cx="168.7" cy="168.7" r="168.7"/>
</g>
<g>
	<path fill-rule="evenodd" clip-rule="evenodd" fill="#DD3333" stroke="#DD3333" stroke-miterlimit="10" d="M104.4,94.1
		c-6-0.4-10.6,5.3-14.3,8.7c-6.3,5.8-15.1,10-18.2,16.3c-2.2,7.8,5.7,17.3,13.1,16.7c0.7-3.6,1.9-7,2.8-10.5
		c-0.1,5.3-2.4,9.1-1.1,14.8c0.4,1.7,0.9,3.5-0.6,4.2c0.1-1.8,0.3-5.9-2.2-7.1c-1.5-0.7-3.7-0.4-5.3-1.2c-2.7-1.5-3.8-5.2-6.3-7.2
		c-1.7-1.4-5.2,0.7-6.9-0.4c2.1-0.5,5-0.4,5.1-2.7c-1.3-3.8,0.3-6.4,1.3-9.2c6.4-6.1,14.2-11.6,20.6-17.7
		C94.2,96.2,101.9,91.8,104.4,94.1z"/>
	<path fill-rule="evenodd" clip-rule="evenodd" fill="#DD3333" stroke="#DD3333" stroke-miterlimit="10" d="M219.5,107.4
		c0.1,1.2-1.5,1.5-2.3,2.3c1.5,1.4,3.3,1.8,4.8,3.2c3.9,5.3,4,11.4,2,15.7c0-4.6,1.4-10.5-3.5-15.6c-2-0.7-3.4-2.6-5.9-2.1
		c0.4,0.8,1.9,2.7,2.1,3.8c-5.1-6.2-12.1-8-21.7-3.8c0.8-0.9,1.8-1,2.6-1.8c-2.4-3-5-5.2-8-6.8c0.1-0.7,1.2,0,1.7,0.1
		c0.4-1.2-1.5-2.2-1.8-2.8c1.1-0.2,2.1,1.1,2.7,2c1.4,2.1,2.8,3.7,4.5,5c3.3,2.4,8.6,0.1,12.7,1.2c1.3,0.3,2,1.2,3.5,0.8
		c0.7,0.5,1.6,0.4,2.3,0.7C216.7,108.6,218.3,108.1,219.5,107.4z"/>
	<path fill-rule="evenodd" clip-rule="evenodd" fill="#DD3333" stroke="#DD3333" stroke-miterlimit="10" d="M35.9,179.5
		c2.9,6.2,2.7,13.1,1.4,18c-0.3-4.1,0.6-8.7-0.6-13.1C36.3,182.7,35.4,181.3,35.9,179.5z"/>
	<path fill-rule="evenodd" clip-rule="evenodd" fill="#DD3333" stroke="#DD3333" stroke-miterlimit="10" d="M260.5,90.6
		c0.2,2.1,1.3,6.5,1.8,9.5c0.5,0.4,1.3,0.2,1.6,1.1c3.1-1.2,5.7,2.3,7.1,5.3c-2.6-1.2-4.8-5.7-7.7-4.6c-2,0.7-0.7,2.9-2.4,4
		c0.2-2.2,0.6-3.4,0.3-5.7c-0.5-3.1-1.2-6.7-0.9-9.5C260.3,90.7,260.4,90.6,260.5,90.6z"/>
	<path fill-rule="evenodd" clip-rule="evenodd" fill="#DD3333" stroke="#DD3333" stroke-miterlimit="10" d="M82.3,174.7
		c1.7,0.1,3.2,0.6,4.9,0.8c0.1,0.3-0.3,0.5-0.3,0.8C85.3,176,83.7,175.7,82.3,174.7z"/>
	<path fill-rule="evenodd" clip-rule="evenodd" fill="#DD3333" stroke="#DD3333" stroke-miterlimit="10" d="M89.5,174.3
		c0.6-0.1,0.5,0.7,0,0.8C89.2,174.7,89.5,174.6,89.5,174.3z"/>
	<path fill-rule="evenodd" clip-rule="evenodd" fill="#DD3333" stroke="#DD3333" stroke-miterlimit="10" d="M239.9,116.9
		c0-0.1,0.1-0.2,0.2-0.2c7.5,1.2,15.3,14.5,10.8,21.9c-0.1,0.8,0,1.8-0.3,2.5c-0.6,0.3,0.1-1-0.6-1.2c-1.1,0.3-1.1,1-2.2,1.2
		c0.4-1.7,2.2-2.1,2.7-3.6C253,129.9,246.6,119,239.9,116.9z"/>
	<path fill-rule="evenodd" clip-rule="evenodd" fill="#DD3333" stroke="#DD3333" stroke-miterlimit="10" d="M114,183.5
		c-3,0.3-5-1.9-7.8-2.3c0.2,1.7,2,1.9,2.9,2.8c-2.2,0.1-3.4-2.1-5.2-3c0.1-0.3,0.2-0.6,0.3-0.9c2.5-0.6,4.9,1.7,7.3,2.5
		C112.5,182.8,113.5,182.2,114,183.5z"/>
	<path fill-rule="evenodd" clip-rule="evenodd" fill="#DD3333" stroke="#DD3333" stroke-miterlimit="10" d="M81.1,204.5
		c4.3,3.9,8.7,7.7,16.1,4.2c0.6-0.7,0.8-0.8,1.7-0.5c-0.2,0.4-1,0.6-1,1c0.6,0.7,1.6,0.3,2,1.4c-1.2-0.3-2.3-0.2-3.1-0.7
		c-4.8,2.3-9.1,0.5-12.5-1.5C83.2,207.8,81.9,206.3,81.1,204.5z"/>
	<path fill-rule="evenodd" clip-rule="evenodd" fill="#DD3333" stroke="#DD3333" stroke-miterlimit="10" d="M289.4,122.8
		c2.6,5.8,3.8,12.7,1.3,17.3c2.3,1.7,5,3.1,6.2,6.4c-1.3-1.4-2.7-2.3-3.9-3.9c-2.6-1.9-4.8-1.6-9.1-0.2c-3,1-6.3,0.7-9.3,1.3
		c-4,0.8-8.1,2-11.5,3.8c-2.2,1.1-5,3.7-8.4,4.1c0.8-1.6,2.7-1.6,4-2.2c1.4-0.7,2.6-2.1,4.1-2.9c2.7-1.4,5.1-2.4,8.2-3.3
		c6.4-1.7,13.2-0.1,18.2-4.7C293.2,134.9,289.9,128.6,289.4,122.8z"/>
	<path fill-rule="evenodd" clip-rule="evenodd" fill="#DD3333" stroke="#DD3333" stroke-miterlimit="10" d="M162.1,191.1
		c0.1-0.1,0.3-0.1,0.4-0.2c0.7,1.2-0.1,1.7,0.3,2.7c6.6-2.6,11.7-2.5,16.5-7.2c-2.3,5-10.8,5.1-15.6,8.4c-0.8,0.6-1.6,1.4-2.4,2
		c-3.6,3-6.4,7.2-9.5,10.6c-1.9,2-4.8,3.4-8.4,4.9c2.2-2.2,5.1-3.4,6.9-5.3c3.5-3.5,6.4-7.9,10.3-11.3c0.7-1.4,1.6-2.6,1.4-4.4
		C162.2,191.3,162.2,191.2,162.1,191.1z"/>
	<path fill-rule="evenodd" clip-rule="evenodd" fill="#DD3333" stroke="#DD3333" stroke-miterlimit="10" d="M195.4,199.7
		c-0.1,0.3-0.1,0.7-0.6,0.9C194.9,200.3,194.9,199.9,195.4,199.7z"/>
	<path fill-rule="evenodd" clip-rule="evenodd" fill="#DD3333" stroke="#DD3333" stroke-miterlimit="10" d="M301.7,169
		c0.1,0,0.2-0.1,0.3-0.1c-3.4,4.8-10.1,8.1-15.6,11.9C291.3,176.8,297.3,173.2,301.7,169z"/>
	<path fill-rule="evenodd" clip-rule="evenodd" fill="#DD3333" stroke="#DD3333" stroke-miterlimit="10" d="M301.7,183.8
		c-0.7,11.1,0.8,23.1-5.3,32c-2.8,3.2-6.5,6.1-8.8,9.5c-4.7,3.5-10.9,8.4-17.2,11.5c-1.1,0.5-2.2,1-3.3,1.3
		c-11,3.2-19.7-0.5-28.8-1.3c-4.4-1.4-9.7-1.5-14.3-2.9c-3.7-1.1-7.2-2.4-11.1-3.2c-5.5-1.2-10.3-3.2-15.5-5.3
		c-1.4-1.1-2.6-2.6-4.3-2.9c-7.3,3.1-8.1,9.4-14.2,13c-1.8,1.1-4.2,1.9-6.3,2.8c-1.9,0.8-4.1,2-6.5,2.6c-4.7,1.2-11.1,0.2-16.1,0.7
		c-3.8,0.4-6.8,0.5-10.5,0c-3.5-0.5-6.9-0.4-10.2-0.5c-0.9,0-1.9-0.5-2.8-0.6c-4.8-0.7-10.8-1-13.9-3.8c-2.6-2.4-4-6.5-6.4-8.2
		c-7.7,2.3-16.1,5.8-23.1,5.4c-2.4-0.1-4.7-0.5-6.9-1.1c-2.1-0.5-4.1-1.7-6.4-2.1c-1.6-0.3-3,0.3-4.6,0.4c-2.5,0.1-5.7-1.4-8.8-1.9
		c-2.8-0.4-5.6-0.5-7.8-2c-2.1-1.5-3.9-4.4-4.7-7c-0.2-0.7-0.2-1.6-0.5-2.2c-0.5-0.9-1.7-1.3-2.4-1.9c-2.1-1.9-4.4-4.9-5.5-8.6
		c-1.3-4.4,0.2-7.6-1.1-12.4c0.5-9.7-2-20.1-1.8-29.2c0-1.5,0.3-3.3,0.7-4.7c0.5-1.9,2.6-3.8,2.8-5.7c0.3-2.7-1.8-5.5-1.5-8.2
		c0.2-1.7,1.3-2.4,1.5-4.2c2.5-3.6,4.4-7.7,7-11.2c1.9-2.7,4.7-4.8,6.9-7.8c1.6-2.2,3-5.1,4.3-7.6c3.7-7.3,8.2-15.8,16-21.3
		c1.9-1.4,4.2-2.5,6.1-4.2c2.6-2.2,4.7-3.7,7.4-5.5c1.5-1,2.7-2.6,4.5-3.5c0.7-0.4,1.4-0.2,2.2-0.5c3.8-1.5,8-4,10.8-6.5
		c3.7-3.3,6.2-6.6,10.7-9c5.6-3,15-6.9,20.6-6.1c0.8,0.1,1.7,0.8,2.6,0.6c0.9-0.2,1.5-1,2.3-1.4c2.7-1.4,6-1.5,9-1.8
		c2.4-0.3,4.7-1.2,6.9-1.5c1.4-0.2,3.8,0.4,5.4,0.7c1.1,0.2,2.6,1,3.5,0.8c2-0.4,4.1-2,6.4-2.4c3-0.5,5,0.1,8.7-0.9
		c5.6-1.6,12.6-1.1,16.4,2.1c4.1,1,8.3,0.6,12.3,1.7c2.3,0.6,4.2,2.2,6.3,3.1c5.5,2.1,11.6,2.3,16.3,6.2c0.8,0.7,1.5,2.1,2.6,2.6
		c1.6,0.8,4-0.3,6.1-0.2c3.8,0.1,5.8,2.4,9,4.2c1.8,1,4,0.9,5.8,1.7c5.4,2.4,8.8,8.5,14.6,10.4c3,3.1,6.8,5.5,9.3,9.5
		c0.9,1.5,1.6,3.3,2.6,4.9c3.2,5,8.6,5.3,11.9,9.9c1.5,2.1,2.3,5.5,3.2,8.1c1.7,4.6,4.2,9.5,6.1,13.7c0.9,2,3.1,4.4,4.1,6.3
		c2.2,4.2,1.2,7.2,1.5,10.5c-1.5,3.1-3.9,6.3-6.1,9.8c-0.5,0.8-1.8,2-1.8,2.6c0,1.7,3.6,3,5,5c2,3,1.3,5.2,1.1,7.5
		C302.8,176.8,303.3,180.4,301.7,183.8z M110.9,67.4c-3.4,2-7.3,5.9-9.5,8.5c-0.7,0.8-0.9,2-1.7,2.6c-1.3,0.9-3.1,1-4.5,1.5
		c-8.6,2.8-15,9.7-21,13.9c-4.5,3.1-8.7,6.2-11.7,10.2c-1.1,1.5-2.4,3-3.3,4.6c-3.2,5.7-5.6,12.3-10.1,17.4
		c-4.7,5.4-9.1,10.7-12,16.7c-1.5,3.2-1.7,7,0.1,11.4c0.9,0.7,1.9-0.3,2.9-0.2c0.6,0,1.2,0.9,1.9,0.7c0.3-0.1,0.9-1.1,1.3-1.6
		c1.4-2,3.2-3.2,4.5-4.8c-1.1-5.4,1-10.6,3.1-14.6c1.3-2.4,2.3-5.1,4.9-6.4c-1.5-9.1,8.5-12.9,14.1-19.8c2.7-3.3,4.6-7.7,8.2-10.6
		c4.2-3.4,9.8-4.8,14.5-7.2c5.3-2.7,9.2-7.1,14.1-9.3c3.6-1.5,7.6-1.7,11.2-2.6c3-0.2,5.5,0.9,8.7,0.3c0.4-3.7,4.6-7.1,5.1-10.4
		c0.1-0.8-0.3-1.5-0.3-2.3c0.1-1.3,1.3-2.5,0.7-3.9C125.4,61.1,117.7,63.4,110.9,67.4z M146.5,97.9c-1.6-6.5,0.9-15.1,2.8-21.3
		c0.2-0.6,0.6-1.4,0.8-1.9c1.6-3.3,3.8-7.2,6.3-9.7c1.3-1.3,2.9-2.3,3.7-3.9c1.5-2.8-1.4-3.7-3.7-4.1c-2.7-0.5-8.9,0.4-12.3,0.7
		c-3.1,0.3-7.1,2.1-8.9,3.7c-0.8,1.6-2.8,3.3-1.8,5.6c1.8-1.8,5.8-4.8,9-5.7c-0.6,1.1-1.7,1.4-2.8,2.1c-7.6,4.5-13,13.9-13.2,21.9
		c-0.1,3,0.8,6.7,2.3,9.3c1.2,0.1,3.1-1.2,3.9-0.1c-3.8,0.9-8.2,6.6-9.4,9.6c-0.6,1.6-0.6,3.7-1.1,5.5c-1.5,5.2-3.4,11-0.5,17.1
		c1.4-1.3,0.1-3.9,1.2-5.4c1.2,8.3-2.8,14.4-1.6,22.7c1,4.9,4.6,10.8,4.3,15.3c-2.1-6.5-6.1-13.9-5.8-20.5c0.2-4.4,1.4-10.8-0.8-14
		c-4.5-1.3-8,3.9-10.5,6.3c-2.1,5.4-8.8,7.7-12.3,12.2c-2.9,3.7-1.6,8.6-1.2,13.8c0.5,0,0.4,0.7,0.9,1.1c2.2,0.3,3.9,1.8,5.7,3.1
		c-4.4-1.5-8.7-3.3-14.5,0.3c-4.4,2.7-6.3,8.7-10.6,11.2c-3.2,1.7-5,3.9-5.6,6.7c0.4,0.6,0.3,1,0.3,1.5c2.4,3.8,5.8,5.1,9.5,5.6
		c-0.1,0.4-0.3,0.8-0.5,1.2c-2.8,0.6-5.8-3.9-7.9-1c-0.9,6.9,5.9,9.9,7.8,13.6c-2.3-2.1-5.3-2.9-7-6.4c-3.8,0.6-7.5,0.9-10-1.6
		c2.7,0.7,6,2.4,9.1,0.2c0.5-1.6-0.5-2.4-0.8-4c-0.2-1.2,0.8-2.6,0.6-3.7c-0.2-0.9-1-1.4-1.3-2.2c-0.6-1.2-0.7-3.6-1.7-4.7
		c-0.4-0.4-1.6-0.7-1.6-1.1c0.1-1.1,2.5-0.1,3.4-0.6c0.6-0.3,0.9-1.3,1.5-1.9c2.6-2.8,7.6-4.9,8.3-8.1c-2.3-0.4-5.3,1-7.3-0.3
		c4.6,0.6,9.7-2.3,13.6-4.9c1.9-1.3,4.2-1.7,6-2.9c2.1-1.4,0.1-4.9,0.1-7.7c0.1-5.3,4-10.2,7.8-13.5c2.6-2.2,5.8-4.1,6.5-6.5
		c0.9-2.9-1.7-3.5-3.6-5.4c-2.8-2.8-4.9-6.4-7.2-9.4c-2.4-1.7-7.3,2.4-9.4,0.3c2.9-0.3,6.2-1.6,9.3-2.3c0.4-2.9,1.6-5.5,1.9-8.5
		c1.8,3.6-1.5,5.5-1,8.8c0.7,4.5,5.2,7.8,7.4,9.9c1.1,1,2,2.4,2.8,3c2.1,1.5,2.8-0.3,4.5-1.5c2.5-1.7,5.5-2.1,6.7-4.1
		c0.4-8.6,1.3-17.1,7.2-23.4c1.6-3.5-0.8-7.9-0.7-12.1c0.1-1.8,1.4-4.4,0-5.7c-2.5-2.3-10.6-1.3-15.1,0.1
		c-7.7,2.4-11.3,8.2-18.4,10.8c-4.2,1.5-10.9,3.5-13.6,6.7c-1.5,2.4-3.7,4.4-5.4,6.9c-2.6,3.7-4.3,7.1-8,9.4
		c-5.4,3.3-10.5,8.3-6.4,14.6c-0.7,0.1-1-1-1.7-0.8c-2.7,2-5.3,7-6.6,9.8c-1.7,3.5-1.5,7.9-0.8,11.9c-0.7,0.3-1-0.1-1.7,0.2
		c-2.8,2.3-4.4,5.7-6.3,8.4c-1.5,2.1-1,5-2.6,7.1c-0.8-4,2.4-6.3,2.2-10.1c-2.8-0.2-5.1,2.2-5.9,3.9c-0.2,1.7-1.1,3-1.5,4.6
		c-0.3,4.5,0.5,9.4,1,14.5c0.9,8.6,0.4,17.9,1.4,25.9c0.3,2,1.6,5.2,2.9,7.3c1,1.6,4.2,5.2,5.6,4.8c1.1-0.3,1.6-3,2.7-4.1
		c1-1.1,1.8-1.5,2.9-2.4c-4.5-2.9-7.2-11.4-2.8-15c1.4-1.1,2.6-1.2,2.7-2.4c0.1-0.9-1.1-2.7-1.4-3.9c-0.6-2.6,0.5-6.5,1.4-8.5
		c0.7-1.7,2.6-3.5,2.4-4.8c-0.3-2.1-2.2-3.9-2.4-5.6c-0.2-1.8,1-4.6,1.9-6.1c1.7-3,4.9-5.1,6.1-8.5c1-2.6,1.2-4.8,2.7-7.1
		c-0.7-3.7-0.9-7.8,1.4-9.8c-0.4,2.6-1.2,4.9-0.3,8.1c1.6,0.6,3.9-1.8,5.3-0.7c-5,1.1-8.3,8.5-8.3,11.6c0,2.4,3.4,4.7,1.6,6.7
		c-0.3-1.8-0.9-4.4-2.3-5.4c-4.9,3.8-9.1,9.5-4.7,16.2c1.9,0.2,3.8-1.4,5.6-1.1c0.2,1.9-3,1-4.6,2.5c-3.5,3.3-5.7,9-3.8,14.7
		c0.7,2,2.5,3,3.2,5.2c-1-0.2-1.5-1.6-2.4-1.9c-9.8,0.2-4.9,18.6,3.3,15.1c-0.9-1.3-2.8-1.8-3.2-3.3c3.9,2.7,8.7,2.6,12.8,4.7
		c2.9,1.5,6.1,3,9.7,2.5c0.2-0.4-0.8-1.1-0.5-1.7c0.6-0.1,0.7,0.8,1.1,1.2c1.1,0.6,2.3,1.1,3.2,1.7c5,3.6,11.1,3.8,16.7,5
		c-5.7,0.5-11,0-15.7-2.7c-1.4-0.8-2.7-2.1-4.1-2.3c-1.6-0.3-3.5,0.3-4.9,0.1c-4.8-0.7-8.2-4.1-13.3-4.7c-1.5,2.3-4,0.7-5.7,1.2
		c-2.2,0.6-3.9,4-4.6,5.6c-2.4,5.5,3.4,11.3,8.1,11.7c6.3,0.3,12.1,3.3,20.1-1.3c0.3-0.2-0.3-0.9,0.2-1c1.4-0.6,2.5,0.2,4,0.3
		c3.7,0.4,8.2-1.7,11.2-0.3c-3.6,0-7.5,0.7-11.6,1.3c-1.8-1.6-4.3,1.5-6.6,2.2c5.9,2.7,12.5,4.4,19.9,2.4c1.2-0.3,2.1-1,3.3-1.3
		c0.6-0.2,0.3-0.7,0.9-0.9c2.4-1.4,8.6-1.8,10.5-4c1.1-2.2-0.3-4.6-0.3-7.2c0-3.2,0.8-7.9,1.7-10.7c1-3.3,4.1-6.2,3.5-10.4
		c-0.5-0.7-1.6-0.1-2.3-0.5c-0.7,0.4-0.5,1.8-1.2,1.8c-0.6-0.4,0.8-1.2,0-1.6c-1.8-0.1-3.7,0-5.2-0.8c-1.9-0.3-4.7,1.7-6.5,1.2
		c5.7-5.3,13.5,1.4,19.5-3c3.2-2.3,6.5-6.8,7.5-9.4c1.9-4.8,1.9-12.1-1.9-19.3c-1.1-2.1-3.2-3.8-4.6-6c-3.6-5.6-2.8-12.2-4.5-18.2
		c3.6,5.3,1.9,11.6,5.2,17c1,1.7,2.6,2.8,3.7,4.9c1-0.8,0.7-2.8,1.7-3.2c0.4,1.2-1.4,2.7-1.2,4.1c0.2,1.1,1.7,3,2.3,4.5
		c1,2.5,1.9,9.2,4.6,8.7c0.9-0.2,2.6-2.5,3.9-3.4c1.8-1.4,2.6-2.2,3.9-3.4c2.6-2.4,5.8-4.3,7.2-7.2c2.5-5-6.5-6.2-5.3-11.9
		c1.4,5.2,5.4,5.9,8,9c2-0.2,4.6-0.5,7-1.7c6.1-3,10.6-6,10.8-11.1c0.2-4.4-2.1-7-3.1-11.5c-0.6-2.7-0.1-6.8,0.3-9.3
		c0.2-1.1,0.9-1.6,1.3-2.4c1.5-3.2,3.2-6.2,6-8.9c9-6.6,13.1-17.2,7.1-29.2c0.9-0.2,1.3,1,2.1,0.9c2.6-4.9,3.2-10.7,3.4-16.6
		c0.5,0.5,0.7,1.6,1.1,2.4c5.2-3,5.4-9,8.2-13.4c0.3-0.8,2.3-2,1.9-3.3c-0.4-1-4-1.7-5.5-1.9c-2.7-0.4-6.4-0.2-9.2,0.6
		c-4.5,1.4-7.7-0.4-11.1,1.2c-1.6,0.7-2.7,3-2.9,4.3c0.5,0.1,1.3-0.3,1.8-0.2c-4,3-6.7,5-9,8.8c-2.1,3.4-3.7,5.6-4.8,9.2
		c-0.6,2-1.7,4-1.9,5.9c-0.7,4.4-1.3,9.4,0,14.1c1,3.5,2.7,6.8,2.2,9.6c-0.9-0.5-1.4-1.9-1.9-3.2c-2.1,0.7-2.7,2.9-3.7,4.8
		c-1.4,2.6-3.5,4.8-4.1,7.7c-1,4.7,0,9.7,1.4,15.2c2,4.8,7.1,10.9,4.6,15.5c0.1-4.4-2.5-7.8-4.5-11.6c-3.5-7.1-3.5-14-3.2-20.8
		c2-4,3.9-8,7.2-11.5C148.5,102,147.2,100.7,146.5,97.9z M214.3,78.9c2.2,2,4.8,3.8,6.6,7.1c1.4,2.5,1.3,5.9,2.9,7.4
		c4.9,0.4,7.3-4.1,8-7.8c0.8-3.8,0.7-10.9-2.3-15.6c-1.8-2.7-5.6-4.9-8.7-5.8c-3.2-0.9-6.9-1.6-10-3c-3.4-1.6-5.7-2.8-10-3.2
		c-2.2-0.2-5.5-1.3-7.1-0.7c-4.3,1.6-4.6,6.6-6.2,9.9c-1.7,3.6-3.8,6-6.6,8.7c0.2,2.9-0.7,4.8-1.6,7.5c-0.6,1.5-2,4.4-1.9,5.7
		c0.1,1,0.9,2,1.1,2.7c1.7,5.9,0,14.1-2.9,18c-4,5.4-11.4,8.3-12.5,15c-0.5,0.1-0.7,0.4-0.9,0.7c-0.5,1.9-1.5,3.8-1.4,6.1
		c0.2,4.1,2.7,8.4,3.5,12.8c0.3,1.8-0.1,3.8,1.4,4.8c4.3-2.1,9.1-3.2,12.8-5.7c0.3-0.2,0.9-0.8,1.2-1.3c2-2.7,3.3-6.1,5.3-9.1
		c1-1.5,2.5-2.6,3.5-4.1c1.9-2.8,1.7-6.5,3-9.3c0.4,1.5-0.1,3.2,0.3,4.3c2.1-0.8,4.9-3.3,7.1-2.5c-1,0.8-2.1,1.2-3.1,1.7
		c-3.9,1.9-5.7,5.4-7.9,8.1c-1.1,1.3-2.2,2.9-2.8,4.1c-1,2.1-2,4.3-2.9,6.4c2,0.9,4.4-2.2,5.6-1.9c-1.3,2.3-4.5,2.9-7.1,4.2
		c-5.9,3.2-11.5,5.9-16.8,8.9c-1.5,0.8-2.9,2.3-3.9,3c-4,2.9-8,3.8-12.5,6.2c-5.4,3-9.1,8.9-14.1,12.5c-2.2,1.5-3.6,2.7-5.4,4.4
		c-3.7,3.4-5,9.3-8.4,12.9c-4.2,4.4-8.2,8.2-8.6,13.6c-0.7,0.8-0.9,1.9-1.4,2.8c-0.6,3-1.4,4.3-1.2,8.1c0.1,2.8-0.5,5.7-0.3,8.4
		c1,2.7,1.5,4.2,2.2,7.1c3.6,6.4,10,6.9,16,7.5c1.3,0.1,7.3,1.1,6.5-2c-0.6-2.3-5-1.1-6.3-1.9c-4.6-2.7-5.2-12.2-4.1-15.9
		c3.1-9.9,9.2-19.8,14.7-28.6c-1.3-0.3-3.6,1-4.3-0.4c6.7-1.1,14.6-4.7,18.8-9.1c2.1-3.1,4.3-6.1,8.7-8.2c0.2-0.4-0.5-1.2-0.1-1.5
		c2.7,1.3,5.2-0.3,8.5-1.1c3.5-0.9,8.2,1,11.5-1.1c1-0.6,0.9-1.8,2.1-2.4c0.3,0.9-0.4,1.3-0.2,2.2c2.7-1.1,4.8-0.6,7.1-1.3
		c1.9-0.5,4.7-2.2,6.5-3.4c3-2,5.7-4.8,8.9-6.4c1.2-0.6,2.7-0.8,3.7-1.5c3.3-2.1,4.2-6.6,7.9-7.6c-2.2,1.8-3.5,4.1-4.6,6.4
		c1.7,0,3.4-0.7,4.8-1.4c6.2-3.2,12.5-5.4,16.5-8.9c3-2.7,2.9-8.3,8.5-9.1c-3.4,2.2-5.6,4.9-6.3,8.2c2.3-0.1,5.4-1,7.1-0.5
		c-6,0.3-10.3,4.6-15.8,6.6c-5.5,2-10.4,5.5-16,7.3c-1.5,0.5-3.3,0.4-5,1.4c-1.5,0.8-3,1.7-4.5,2.6c-2.3,1.3-4.1,3.5-6.3,5
		c-5.3,3.7-14.3,2.5-16.6,7.4c-0.1-1,0.8-1.6,0.7-2.6c-5.3-0.7-11.6,1.1-17.6,2.2c-5.6,4.1-10.6,9.2-12.1,14.7
		c-0.3-1.1,0.6-2.2,0.1-3c-2.4,1.8-4.5,2.6-7.5,4.1c-5.7,2.9-6.7,8.9-9.6,13.5c-1.2,1.9-3.2,3.9-4.2,5.8c-2.5,4.7-3,10.3-5.2,14.8
		c0.6,3.4,2,8,3.9,10.7c3.9-0.6,7.1,2.2,11.1,1.1c2.1-0.5,3.3-1.6,5.3-2.7c3.5-1.9,7.9-2.2,11.4-4.2c2.6-1.5,4-4.2,7.1-3.8
		c-2.6,0.9-4.3,3.7-6.9,5c-2.2,1.1-5.5,1.4-8.5,2.7c-3.6,1.7-7.7,4.1-11.4,5c-0.3,1.6,0.9,1.7,1.8,2.5c5.9,1.5,13.6,0.2,20.4-0.3
		c2.5-0.2,5.1,0.2,7.2-0.3c2.9-0.7,5.8-2.1,8-2.7c11.2-3,11.6-11.8,19.6-15.9c-1.6,0-3.8-0.1-5.8,0.9c-2.4,1.2-5.7,4.2-8.8,3.6
		c3.6-1.1,6.3-3.5,8.8-4.7c3.5-1.7,6.7-1.3,10.5-2.4c3.6-1.1,8.2-3,11.4-4.9c1.9-1.1,4.1-2,6-3.2c4.5-2.8,9.3-5,13-7.7
		c2.8-2.1,5.7-4.5,6.9-7.4c-1.1-0.2-2.8,0.8-3.7,0.2c2.6-2,5.9-2.3,8.7-3.8c2.9-1.5,6-4,8.6-6c1.5-1.1,3-3.1,4.2-4.5
		c2.3-2.7,4.6-4.3,5.3-7c-1.6-0.6-3.3-0.8-5.2-1.4c-2.9-0.9-5.5-2.4-9-0.1c-4.2,2.7-7.6,6-11.9,8.4c-5.4,2.9-8.8,5.8-13.9,7.8
		c-0.7,0.2-1.5,0.1-2.2,0.4c-2.8,1.3-4.7,3.7-6.4,5.2c-2.9,2.7-6.9,5.8-11,7.4c-4.6,1.8-9.7,3.8-14.2,4.7c-2.5,0.5-5.3,0.5-7.7,1.3
		c-3.3,1.1-6,4.4-9.8,5.3c-2.6,3.5-7.6,3.9-12,6.2c-1.7,0.9-2.9,2.7-4.7,3.4c-1.5,0.7-3.6,0.4-5.1,1.1c-0.9,0.4-1.6,1.5-2.7,1.6
		c1.7-3.5,8.9-3.2,10.5-6.7c7.4-1.4,13.1-6.6,19-10.1c-1.3,0.3-2.6-0.6-4-0.8c-0.9-0.1-2.5,0.6-2.9-0.4c5.7-1.7,13.1,0.2,18-2.7
		c0.3,0.4,1-0.1,1.5-0.3c0.3,0.3,0.8,0.2,1.2,0.3c4.1-0.8,8.6-2.5,12.6-3.9c0-0.4-0.6-0.4-0.3-0.7c5.7-2.7,9.9-5.4,12.9-9.2
		c-3.6,0.8-6.2-0.7-9.1-1.3c2-1.3,3.8,0.3,5.5,0.5c3,0.4,7.6-1.9,10.8-2.7c6.7-1.8,12.7-7.3,17.8-10.6c2.9-1.8,5.7-2.8,7.2-5.2
		c-1.1-0.9-3,0-4-1.1c1.7-0.5,4.3,0.3,6.2,0.1c1.3-0.2,2.1-0.7,3.2-0.7c2.3,0.2,3.9,1.5,6.3,1.9c3.7,0.6,7.3,0.8,12-1.7
		c4-2.2,7.1-2.8,11.2-3.5c2.5-0.4,4.6-1.4,7.2-2.2c4.7-1.5,10.3-3.2,13.3-6.2c0.9-1,1.8-2.7,2.9-4c1-1.3,2-3.1,2.5-4.2
		c3.6-7.5-3-15.6-7.5-22.8c-2.3-6.8-3.8-15.5-8.7-19.5c-3.5-1.2-7.8-5.5-10.9-0.3c-2.3,5.9,1.5,13.8,0.1,20.2
		c-2.1-1.7-0.9-4.5-1.2-6.5c-0.8-7.3-2.7-14.6,4.1-18c-3.7-9.5-11.3-14.2-17.2-18.9c-2.2-1.8-4.2-3.7-6.4-5.4c-1.9-1.5-4.3-3-6.9-3
		c2.3,6.5,4.9,13.6,2.4,18.8c-0.3-6.1,0-14.1-5-20.1c-1.8-2.2-9.1-5.3-12.1-3.9c-2.5,1.1,0.3,5.9,0.5,8.5c0.5,4.7-1.7,8.5-1.8,12.8
		c6.4,0.8,13.3,3.4,17.6,9.5c3.1,4.4,4.1,10.4,4.4,14.8c-2.1-3.6-2.2-7.8-4-11.3c-1.7-3.2-4.7-6.6-7-8.5c-1.5-1.2-4.1-1.6-6.1-2.2
		c-1.8-0.5-4.7-1.3-6.7-0.8c-2.1,0.5-3.6,2.5-5.2,1.6c-1.6,0.8-0.8,2.8-1.8,3.9c0-2.9-1.4-6.2-2.3-9.3c-0.9-3.1-5.7-8.7-6.6-9.5
		c-2.6-2.1-9-3-13.7-1.7c-2.3,0.7-4.8,1.7-7.1,2.6c-2.6,1.1-4.6,3.5-7.5,3c4.7-2.4,8.8-5.4,14.1-6.9c5.1-1.4,9.8,0.5,13.8,0.9
		C213.8,78.1,214.1,78.8,214.3,78.9z M250,185.5c7-4.3,13.1-9.7,19.3-14.8C261.1,174.4,255.6,180.3,250,185.5z M250,186.6
		c-6.4,3.8-13.4,7.2-17,12.5c14.3-10.4,32.8-17.3,42-30.4C265.4,173.1,259,181.3,250,186.6z M272,174.1c3.5-2,6.4-4.2,8.4-6.8
		C276.1,167.7,274.7,171.8,272,174.1z M257.1,178c1.3-0.9,2.4-2.5,3.9-3C259.3,174.9,257.3,176.7,257.1,178z M272,174.7
		c-4,2.2-5.5,4-9.1,6.6c-3.1,2.3-7,4.9-10,6.4c-2.3,1.1-2.5,2-4.1,3.4c-4.9,4.3-10.4,8.3-15,12.2c-2,1.7-3.6,3.8-5.4,5.3
		c-2.3,1.9-6.8,6-5.6,8.7c0.5,1.1,2.3,1.5,3.3,1.1c0-0.5-0.3-0.9-0.3-1.6c2.7-6.4,8.7-11.7,15-16.6c3.4-2.7,6.2-5.8,10.1-7.4
		c-9.5,7.6-20.7,14.5-24.4,24.5c0.8,1.4,2.1,1.5,3.7,1.3c-0.4-0.8,0.2-2,0.2-3c3.1-4.2,7.3-7.6,11.6-11.3c1.3-1.1,2.9-1.8,4-3
		c3.2-3.4,5.2-7.6,8.4-10.4c-0.3,0.4-0.9,0.8-1.3,1.1c-3.3,7.9-13.3,13.8-19.5,20.5c-1.3,1.4-3.8,3.4-2.3,5.5c1.3,0.2,2.5,0.7,4.1,0
		c0.1-0.4-0.4-1.1-0.5-1.7c1.6-3.9,4.9-6.5,8.9-9.1c4-2.6,7.4-5.4,10.8-8c6-4.4,10.1-8.5,15-13.1c-0.7,2.8-4.8,3.5-5.6,6.4
		c4.9-2.1,7.7-5.6,11.2-8.3c2-1.5,4.3-2.5,6.7-3.8c5.9-3,10.1-7.7,14.5-11.2c0.6-1.6,2.8-2.6,3.2-4.3c-0.7-0.7-1.4-1.6-2.4-1.6
		c-2.2,3.1-5.9,5.5-8.8,8.3c-6.1,2.7-10.5,8.6-16.6,11.8c-3.4,1.8-6.6,3.1-9.2,5.6c1.7-1.9,4-3.7,6.3-4.9
		c8.3-4.1,15.1-10.9,22.6-15.6c1-1.9,3.9-2.9,4.5-5c-15.2,5.4-24.8,17-36.7,23.8c8.7-7.5,19.8-14.1,27.7-22
		C281.5,167,277.6,171.7,272,174.7z M288.6,165.6c1.8-1,3.8-1.8,5.7-2.6C292.3,162.5,289.2,164.1,288.6,165.6z M297.5,168.4
		c1-0.9,2.5-0.8,3.8-1.5c-0.2-0.8-0.6-1.3-1.2-1.3C299.9,166.8,298.4,167.5,297.5,168.4z M302.3,170.9c0-1-0.1-2.6-0.8-3.5
		c-6,1.3-9,6.5-13.5,10c-2,1.6-4.5,2.4-6.9,3.7c-5.1,2.6-9.1,7.5-14.1,10.5c-1.4,0.9-3,1.4-4.4,2.2c-1.5,0.9-3,2.5-4.7,3.8
		c-3.4,2.5-6.9,4.9-10,7.3c-2.2,1.7-5.6,3.5-7.7,5.3c-2.2,1.8-7.5,8.7-0.5,7.2c0.2-0.3-0.3-1-0.2-1.3c2.9-4.9,8.7-8.4,13.2-12.4
		c1.6-1.5,3.2-3.5,5-4.4c-3,2.8-6.6,6.6-9.5,9.2c-3.2,2.8-7.1,4.4-7.7,8.2c1.4,1.5,4.1,0.1,5.8,0.7c-0.5,0.1-1.7,0.7-2.7,0.9
		c-1.9,0.3-10.7,0.2-9.8,3.3c0.3,1.1,1.5,0.4,1.6,1.6c-2.1,0.1-2.3-2.2-2.2-3.9c-2.1-0.8-4.4,1-4,2.7c0.7,2.8,4.5,3.5,6.4,4
		c0,0.5,0.1,0.5,0.3,0.8c6.4,1.9,13.4,4.5,20.8,2.1c7-2.3,12.7-7.7,17.6-10.8c7.6-4.7,16.6-7.1,21-13.3c0.5-0.1-0.3-0.8,0.3-0.9
		c2.6-1,4.3-3.2,4.1-5.8c-3,4.5-8.4,6.5-13.4,9.8c-2.8,1.9-5,4.3-7.6,6c-5.7,3.7-14.6,5.9-21.2,7.4c-4.8,1-9.7,1.8-14.3,1.5
		c-0.9-0.6-2.3-1.3-2.7-2.3c0.8,0.7,1.7,1.4,2.6,1.8c5.6,0.2,12.2-1.3,18.4-3c-2.8-0.4-7.1,1.1-8.3-2.2c-2.4,0.7-4.5,0.8-6.3,0.3
		c1.3-6.2,7.8-8.9,13.1-13.1c5.2-4.2,10.1-9.6,16.6-12.2c-6.5,3.6-10.9,8.6-17.3,13.2c-2.8,2.1-5.7,3.6-7.8,5.5
		c-1.7,1.6-3.7,4.2-3,6.1c1,0.2,2.3-0.1,3.4-0.2c0.1-0.4-0.2-0.9,0.2-1.2c7.8-9.3,20.8-15.3,30.8-23.4c2-1.6,3.5-3.6,5.4-5.3
		c4.6-4.3,9.3-8.4,14-12.4c-0.1-0.9,0.4-1.5,0.1-2.4c-6.4,5.1-12.5,11.7-19.5,15.8C289.3,182.7,295.6,176.4,302.3,170.9z
		 M226.2,209.5c6.7-6.9,17-13.9,23.7-20.4c-0.1-0.2-0.2-0.3-0.4-0.2c-7.9,5-17.7,11.6-24.2,18.4c-2.8,2.9-9.6,11.7-1.7,12.1
		C220.3,216.4,224.2,211.5,226.2,209.5z M230.1,201.7c0.3-0.4,1-0.6,1-1C230.8,201,230,201.2,230.1,201.7z M218.3,213.2
		c0-1.9,1-3.4,2-4.9c-0.4,0.4-1.4,0.6-2.2,1.2c-3.5,2.4-9.6,11.8-1.8,11.1c-2.3-2.2-0.2-5.6,1.4-6.8c-1.4,1.5-2.3,3.6-1.5,5.7
		c1.6,0.3,2.7,1.6,4.8,0.6c-0.8-0.6-1.5-1.3-1.9-2.9c0.8-5.6,4.9-9.9,9.2-14C223.5,205.9,219.9,209.1,218.3,213.2z M301.4,175.4
		c-9.5,7.8-18.2,18-29.5,25.3c-2.1,1.3-3.7,2.1-5.5,3.3c-5.3,3.5-10.8,7.4-14,12.3c1.5,0.9,3.6-0.7,5.7-0.8
		c5.9-8.5,18.4-13.3,26.5-20.6c1.9-1.7,3-4.6,5.1-6.5c3.8-3.5,7.4-7.1,10.6-10.4c0.6-0.6,2-1.6,1.4-2.6
		C301.5,175.4,301.4,175.4,301.4,175.4z M209.4,220.4c0.9,0,1.6,0.8,2.8,0.2c-1.5-3.9,2.2-6.7,2.2-9.2
		C212.3,214.2,208.7,216.4,209.4,220.4z M208.4,221c-0.8-3.2,1.2-5.1,2.5-7.4C208.8,215,203.8,220.4,208.4,221z M291.7,191.2
		c0.5-0.3,0.7-0.7,1.4-0.9c1.9-4.7,7.4-7.8,8.6-12.8c-4.5,3.8-7.6,8.1-12.5,11.7c-0.8,1.9-2.9,3.2-3.7,5.1c1.7-0.2,3-1.4,4.5-1.6
		c-1.6,1.5-4.4,1.9-6.1,3c-0.8,0.6-1.4,1.7-2.2,2.3c-1.4,1-3.2,1.6-4.7,2.7c-1.8,1.3-3.2,3.1-5.1,4.1c-5.4,2.9-9.6,5.5-12.6,9.6
		c9.6-0.9,17.5-9.2,24.4-13.7c-4.5,4.6-11.1,8.3-16.4,12.6c9.4-2.9,14.9-9.5,21.4-14.9c4.1-3.4,8.6-7.9,11-11.5
		c-0.2-2,0.7-4.1,0.8-5.6C297.3,184.4,296.1,189,291.7,191.2z M204.3,220.7c0.7-0.1,1,0.5,1.8,0.1c-0.9-2.5,1.3-3.6,1.4-5.6
		C206.2,216.9,203.2,217.9,204.3,220.7z M202.6,221c-0.2-1.6,0.7-2.7,1.3-3.9C202.2,217.8,200.1,220.6,202.6,221z M199.2,219.5
		c0.2,0.4,0.5,0.5,0.9,0.3c0-0.4-0.1-0.9-0.6-0.7C199.5,219.3,199.4,219.5,199.2,219.5z M197,220.6c-0.7,0.9,0.6,3.1,1.7,3
		c0.1-0.7,0.7-1.3,0.8-2.1C198.7,221.2,198,220.5,197,220.6z M202.4,225.1c-0.5-0.7-0.8-2.1-0.8-3.2
		C198.8,221.9,201.2,226,202.4,225.1z M207.2,227.7c-1.7-1.4-2.9-3.8-1.8-5.8C200,221.3,204.4,228.2,207.2,227.7z M206,223.1
		c0.1,3.7,3.7,6.2,6.7,6.4c-2-1.6-4.8-4.6-4.7-7.4C207.4,222.2,206.6,222.5,206,223.1z M216,229.7c-1.9-1.9-6.3-4.7-4.2-8.1
		C205.1,222.7,212.6,230.2,216,229.7z M211.8,224.1c3.1,5.2,8,7.6,12.7,8c-3.5-1.8-11.1-4.5-8.7-10.4
		C214.2,220.9,212.1,222.9,211.8,224.1z M273.3,212c4.2-1.5,8.4-4.9,12.5-7c-3.1,3-7.2,4.9-11.4,7.1c-7.2,3.7-13.4,2-20.2,5.6
		c2.7,1.9,6.8,1.3,10.6,0.6c1-0.2,2.2,0,2.9-0.2c9.9-2.4,15.4-9.3,21.6-14c3.4-3.5,8.1-6.6,9.6-11c-3.6,3.4-6.5,7.7-11.4,10.1
		c4.7-4.5,10.5-8.6,12.2-14.4C292.1,197.1,282.9,204.8,273.3,212z M215.7,224c0.2,0.6,0.5,1.3,0.8,1.9c3.4,3.7,8.8,6.2,13.7,7.7
		c2.8,0.9,6.1,1.1,9.1,1.6c3.4,0.7,6.3,0.8,9.3,0.6c1.4-0.1,3.1,0.3,4.6,0.1c7.3-0.9,14.4-5.5,20-6.8c0.7-0.8,1.3-1.6,2.3-2.2
		c-0.8-1.2-1.9-0.2-2.8,0.2c-2.4,0.9-5.6,1.8-7.9,2.4c6.7-2.4,14.1-4.9,20-8.9c1.4-0.9,2.4-2.1,3.8-2.9c3.3-2,6.8-3.2,7.9-6.5
		c-5,3.3-10.8,7.6-17,10.8c-1.7,0.8-4.3,1.4-6.6,2.3c-4.2,1.7-7.9,4.2-12.1,5.5c-4,1.2-8.4,1.8-12.6,3.1c0.5-0.3,1.5-0.4,1.7-0.9
		c-6.6-1.2-13.4,0-18.9-3.1c-2.9-1.6-5.8-3.8-8.3-6.1c0.8-0.5-0.1-1.5-0.6-1.8c-1.4,0.5-2.2,1.2-2.7,2c0,1.1,0.5,2.2,1.1,3.2
		c4.3,3.3,9,5.8,14.6,6.3c2.6,2.3,5.8,0.8,9.4,0.9c1.6,0,3.1,0.7,4.7,0.5c3.4-0.3,6.7-1.6,10.3-2c-0.9,0.5-1.6,1-2.7,1.2
		c-4.1,1-6.9,0.9-11.5,0.7c-2.7-0.1-5.5,1-7.5,0.7c-0.6-0.1-1.4-0.7-2.1-0.9c-4.7-1.2-11.1-3.2-14.6-6c-2.3-1.8-2.7-4.4-2-6.2
		C217.2,222.3,215.9,222.2,215.7,224z M224.1,220.9c0.4,3.6,3.7,5.1,6.3,6.6c4.4,2.6,8.6,2.7,13.9,3.2c3.5,0.4,6.9,1.8,9.6-0.2
		c5.4-0.5,10.6-2.6,16.1-5.5c5-2.5,10.8-4.3,15.8-7.4c5.1-3.2,10.4-6.8,13-11.3c-5.7,4.6-12.2,9.5-20.8,12.5
		c8.7-4.7,17.9-8.9,21.3-16.1c-4.1,1.6-5.8,4.9-8.8,7c-3.2,2.2-7.1,3.9-11.3,6.1c-9.5,4.9-17.4,13.5-28.3,14.4
		c-3.8-0.7-8.4-1-12.7-2c-0.7-0.2-1.4-1-2.3-1.3c-3.4-1.4-7.8-2.7-7.7-7.3C227.1,219,225.1,219.9,224.1,220.9z M299.4,194
		c-2.4,3.5-5.8,7.3-9.6,10.2c-1,0.8-2.6,1-2.8,2.5c6.3-3.3,12.2-6.9,12.8-12.7C299.6,194,299.5,193.9,299.4,194z M271.9,212.6
		c0.3-0.2,1.1-0.2,1-0.6C272.6,211.8,272,212.3,271.9,212.6z M275.9,227.7c6.8-3.2,15.9-7.4,19-13
		C289.2,219,280.2,222.5,275.9,227.7z M269.8,234.9c-2.3,0.6-4.6,0.8-6.7,1.2c-1.2,0.3-2.3,1.1-3.6,1.1c-4.1,0-7.6-1.3-11.6-0.3
		C254.5,237.5,262.8,239.6,269.8,234.9z M254.5,236c3.9,1.8,6.7-1.3,11.9-2.8c4.5-1.3,8.7-3.5,12.7-5.7c2.4-1.3,5.3-2,6.8-4.1
		C275.8,229.1,265.1,232.9,254.5,236z M262.2,235.5c4.4-0.2,10.1-2.3,14.3-4.7c2-1.1,5-1.4,5.4-3.6
		C275.8,229.7,269.5,233.3,262.2,235.5z"/>
	<path fill-rule="evenodd" clip-rule="evenodd" fill="#DD3333" stroke="#DD3333" stroke-miterlimit="10" d="M279.4,186.1
		c-5.2,3.4-12.3,6-16.4,9.9C266.8,192,272.9,188.9,279.4,186.1z"/>
	<path fill-rule="evenodd" clip-rule="evenodd" fill="#DD3333" stroke="#DD3333" stroke-miterlimit="10" d="M236.1,223.5
		c2.8,1.6,6.1,2.3,9.9,2.6c1.4,0.1,2.9,0.4,4,0.3c7.3-0.5,14-3.4,21.3-8c-5.1,3.5-11.2,7.6-18.1,8.5c-0.7,0.1-1.2-0.5-2-0.5
		C246.1,226.1,239.5,227.1,236.1,223.5z"/>
</g>
<g>
	<path fill="#DD3333" d="M182.6,271c0.7-2,2.8-3,4.8-2.4c2,0.7,3,2.8,2.4,4.8c-0.7,2-2.8,3.1-4.8,2.4C183,275.1,182,273,182.6,271z"
		/>
	<path fill="#DD3333" d="M188.6,258.8c1-3,4.3-4.6,7.4-3.6c3,1,4.7,4.3,3.6,7.4c-1,3-4.3,4.6-7.4,3.6
		C189.2,265.2,187.6,261.9,188.6,258.8z"/>
	<path fill="#DD3333" d="M189.3,242.2c1.3-3.8,5.4-5.8,9.2-4.5c3.8,1.3,5.8,5.4,4.5,9.2c-1.3,3.8-5.4,5.8-9.2,4.5
		C190,250.1,188,246,189.3,242.2z"/>
</g>
</svg>
